<svg width="22" height="19" viewBox="0 0 22 19" fill="none" xmlns="http://www.w3.org/2000/svg">
<mask id="path-1-inside-1_381_575" fill="white">
<path d="M9.27391 1.0608L0.803908 15.2008C0.629276 15.5032 0.536874 15.8461 0.535897 16.1953C0.534919 16.5445 0.625398 16.8879 0.798334 17.1913C0.97127 17.4947 1.22063 17.7475 1.52162 17.9246C1.8226 18.1018 2.16471 18.197 2.51391 18.2008H19.4539C19.8031 18.197 20.1452 18.1018 20.4462 17.9246C20.7472 17.7475 20.9965 17.4947 21.1695 17.1913C21.3424 16.8879 21.4329 16.5445 21.4319 16.1953C21.4309 15.8461 21.3385 15.5032 21.1639 15.2008L12.6939 1.0608C12.5156 0.766903 12.2646 0.523916 11.9651 0.355281C11.6656 0.186645 11.3276 0.098053 10.9839 0.098053C10.6402 0.098053 10.3022 0.186645 10.0027 0.355281C9.70319 0.523916 9.45218 0.766903 9.27391 1.0608Z"/>
<path d="M11.9839 14.2008C11.9839 14.7531 11.5362 15.2008 10.9839 15.2008C10.4316 15.2008 9.98389 14.7531 9.98389 14.2008C9.98389 13.6486 10.4316 13.2008 10.9839 13.2008C11.5362 13.2008 11.9839 13.6486 11.9839 14.2008Z"/>
</mask>
<path d="M11.4839 6.2008C11.4839 5.92466 11.26 5.7008 10.9839 5.7008C10.7078 5.7008 10.4839 5.92466 10.4839 6.2008H11.4839ZM10.4839 10.2008C10.4839 10.4769 10.7078 10.7008 10.9839 10.7008C11.26 10.7008 11.4839 10.4769 11.4839 10.2008H10.4839ZM10.4839 6.2008V10.2008H11.4839V6.2008H10.4839ZM9.27391 1.0608L8.41889 0.542161L8.41604 0.546926L9.27391 1.0608ZM0.803908 15.2008L-0.0539598 14.6869C-0.0567043 14.6915 -0.0594122 14.6961 -0.0620829 14.7007L0.803908 15.2008ZM2.51391 18.2008L2.50292 19.2008H2.51391V18.2008ZM19.4539 18.2008V19.2009L19.4649 19.2007L19.4539 18.2008ZM21.1639 15.2008L22.0299 14.7007C22.0272 14.6961 22.0245 14.6915 22.0218 14.6869L21.1639 15.2008ZM12.6939 1.0608L13.5518 0.546918L13.5489 0.542169L12.6939 1.0608ZM10.9839 0.098053V-0.901947V0.098053ZM8.41604 0.546926L-0.0539598 14.6869L1.66177 15.7147L10.1318 1.57467L8.41604 0.546926ZM-0.0620829 14.7007C-0.324031 15.1544 -0.462633 15.6687 -0.4641 16.1925L1.53589 16.1981C1.53638 16.0235 1.58258 15.8521 1.6699 15.7009L-0.0620829 14.7007ZM-0.4641 16.1925C-0.465566 16.7163 -0.329847 17.2314 -0.0704432 17.6865L1.66711 16.6961C1.58064 16.5444 1.5354 16.3727 1.53589 16.1981L-0.4641 16.1925ZM-0.0704432 17.6865C0.18896 18.1416 0.563005 18.5209 1.01448 18.7865L2.02875 17.0628C1.87826 16.9742 1.75358 16.8478 1.66711 16.6961L-0.0704432 17.6865ZM1.01448 18.7865C1.46595 19.0522 1.97911 19.195 2.50292 19.2007L2.5249 17.2009C2.3503 17.1989 2.17925 17.1513 2.02875 17.0628L1.01448 18.7865ZM2.51391 19.2008H19.4539V17.2008H2.51391V19.2008ZM19.4649 19.2007C19.9887 19.195 20.5019 19.0522 20.9533 18.7865L19.9391 17.0628C19.7886 17.1513 19.6175 17.1989 19.4429 17.2009L19.4649 19.2007ZM20.9533 18.7865C21.4048 18.5209 21.7789 18.1416 22.0383 17.6865L20.3007 16.6961C20.2142 16.8478 20.0896 16.9742 19.9391 17.0628L20.9533 18.7865ZM22.0383 17.6865C22.2977 17.2314 22.4334 16.7163 22.4319 16.1925L20.4319 16.1981C20.4324 16.3727 20.3872 16.5444 20.3007 16.6961L22.0383 17.6865ZM22.4319 16.1925C22.4304 15.6687 22.2918 15.1544 22.0299 14.7007L20.2979 15.7009C20.3852 15.8521 20.4314 16.0235 20.4319 16.1981L22.4319 16.1925ZM22.0218 14.6869L13.5518 0.546926L11.836 1.57467L20.306 15.7147L22.0218 14.6869ZM13.5489 0.542169C13.2815 0.101329 12.905 -0.263152 12.4557 -0.516106L11.4745 1.22667C11.6243 1.31098 11.7498 1.43248 11.8389 1.57942L13.5489 0.542169ZM12.4557 -0.516106C12.0064 -0.769059 11.4995 -0.901947 10.9839 -0.901947V1.09805C11.1558 1.09805 11.3247 1.14235 11.4745 1.22667L12.4557 -0.516106ZM10.9839 -0.901947C10.4683 -0.901947 9.9614 -0.769059 9.51211 -0.516106L10.4933 1.22667C10.6431 1.14235 10.812 1.09805 10.9839 1.09805V-0.901947ZM9.51211 -0.516106C9.06283 -0.263152 8.68631 0.101329 8.41891 0.542169L10.1289 1.57942C10.218 1.43248 10.3435 1.31098 10.4933 1.22667L9.51211 -0.516106ZM10.9839 14.2008V16.2008C12.0885 16.2008 12.9839 15.3054 12.9839 14.2008H10.9839ZM10.9839 14.2008H8.98389C8.98389 15.3054 9.87932 16.2008 10.9839 16.2008V14.2008ZM10.9839 14.2008V12.2008C9.87932 12.2008 8.98389 13.0963 8.98389 14.2008H10.9839ZM10.9839 14.2008H12.9839C12.9839 13.0963 12.0885 12.2008 10.9839 12.2008V14.2008Z" fill="#A45E5E" mask="url(#path-1-inside-1_381_575)"/>
</svg>
